# xmcd CD database file
#
# Track frame offsets:
#	150
#	11904
#	24494
#	35787
#
# Disc length: 666 seconds
#
# Revision: 0
# Processed by: cddbd v1.5.1PL0 Copyright (c) Steve Scherf et al.
# Submitted via: CDex 1.51
#
DISCID=2d029804
DTITLE=Neon - A Man
DYEAR=2004
DGENRE=Rock
TTITLE0=A Man
TTITLE1=Friend (demo)
TTITLE2=Hit Me Again (demo)
TTITLE3=Everything (demo)
EXTD=YEAR: 2004
EXTT0=
EXTT1=
EXTT2=
EXTT3=
PLAYORDER=
